<svg width="147" height="48" viewBox="0 0 147 48" fill="none" xmlns="http://www.w3.org/2000/svg">
<g clip-path="url(#clip0_612_7343)">
<path d="M69.9024 0H55.2024V48H69.9024V0Z" fill="#059347"/>
<path d="M97.1509 0H75.7894V48H97.1509V0Z" fill="#059347"/>
<path d="M140.201 0H126.172V48H140.201V0Z" fill="#059347"/>
<path d="M126.172 0H97.168V48H126.172V0Z" fill="#08793D"/>
<path d="M75.7893 0H69.9197V48H75.7893V0Z" fill="#2FB34A"/>
<path d="M146.983 0H140.184V48H146.983V0Z" fill="#2FB34A"/>
<path d="M55.2025 0H0V48H55.2025V0Z" fill="#EC1C24"/>
<path d="M126.396 34.8812C126.362 34.8812 126.31 34.8982 126.275 34.9153C126.207 34.9666 126.155 35.0349 126.155 35.1203V35.1716C126.155 35.3765 126.189 35.5815 126.275 35.7865C126.327 35.9232 126.396 36.0769 126.482 36.2819C126.74 36.8285 127.153 37.3922 127.653 37.8534C128.221 38.3829 128.892 38.7758 129.58 38.9979C130.854 39.4249 132.214 39.4591 133.729 39.1516C135.433 38.7929 136.724 37.9388 137.567 36.5723C138.239 35.4961 138.6 34.232 138.6 32.8313C138.617 30.3716 138.617 27.8264 138.617 24.7858C138.617 22.9922 138.617 21.3011 138.617 19.8491C138.617 19.6954 138.583 19.6612 138.411 19.6271C136.913 19.3879 135.416 19.3879 133.935 19.6612C133.832 19.6783 133.729 19.6954 133.694 19.7125C133.677 19.7296 133.712 24.4954 133.694 25.9644C133.694 26.3744 133.643 26.8185 133.539 27.2456C133.402 27.8776 133.109 28.3559 132.644 28.6805C132.317 28.9025 131.921 28.9708 131.56 28.8513C131.25 28.7488 131.026 28.5267 130.923 28.2192C130.837 27.9459 130.785 27.6385 130.785 27.2627C130.785 26.4769 130.785 22.9922 130.768 22.0356C130.751 21.3011 130.716 20.652 130.183 20.1566C129.529 19.5246 128.806 19.2171 127.876 19.2C126.895 19.1659 126.413 19.3708 125.897 19.6271C125.535 19.7979 125.243 19.9858 125.019 20.2079C125.122 20.2933 125.208 20.3787 125.294 20.4641C126.017 21.1644 126.121 22.0356 126.121 23.0093V28.6121C126.121 30.6107 127.704 31.6698 128.255 31.8406C129.133 32.1139 130.148 32.1139 131.044 31.8406C131.784 31.6014 132.816 31.0548 133.436 29.7737C133.505 29.62 133.574 29.5345 133.66 29.5516C133.746 29.5687 133.763 29.6883 133.763 29.7566C133.78 30.6107 133.78 32.6605 133.763 33.4804C133.729 35.0178 132.575 36.2648 131.009 36.4527C129.529 36.6406 128.203 36.2648 127.067 35.3765L127.05 35.3595C126.878 35.2228 126.689 35.0691 126.482 34.9495C126.482 34.8812 126.43 34.8812 126.396 34.8812Z" fill="white"/>
<path d="M90.9025 27.8947C90.0418 27.8434 88.9918 27.9971 88.9918 26.3744C88.9918 22.9922 88.9918 15.7495 88.9918 15.7495C88.9918 15.7495 85.2394 14.6562 82.8123 16.706C82.6402 16.8598 82.5197 16.911 82.5885 16.6548C83.0189 15.1516 83.4148 13.4263 85.1361 11.5644C85.3599 11.3253 85.3254 10.9324 85.0844 10.6932C84.8263 10.4541 83.8623 9.75373 83.6213 10.01C83.0533 10.5907 82.7435 11.1715 82.3992 12.0598C82.3648 12.1452 82.2615 12.1281 82.2443 12.0427C82.1754 11.684 82.1066 11.3936 82.0894 11.2569C81.1599 4.64625 74.1885 4.90248 74.1885 4.90248C74.1885 4.90248 72.3467 12.3331 78.6812 13.768C80.2992 14.1267 81.9517 13.3068 81.7795 14.4C81.7623 14.7929 81.5041 16.1594 81.4181 16.6377C81.4008 16.7402 81.2804 16.7744 81.2115 16.706C79.4902 14.9979 77.2353 14.1267 74.9287 14.4854C70.6771 15.1516 67.8713 19.832 68.6631 24.9395C68.8353 25.9815 69.1279 26.9722 69.541 27.8605C69.6615 28.1167 69.8164 28.3729 69.9541 28.6633C71.6066 31.6185 74.7049 33.4633 77.8205 32.985C79.3697 32.7459 80.7123 31.9772 81.7623 30.8669C82.4681 32.1651 84.0517 32.763 85.6181 32.763C86.8918 32.763 88.1484 32.4726 89.3877 31.516C90.4205 30.7473 91.2123 29.8249 91.4189 29.432C92.0385 28.3559 91.6599 27.9459 90.9025 27.8947Z" fill="white"/>
<path d="M74.2401 25.9644C72.5188 24.0171 73.2418 22.1381 74.1713 21.1473C75.1697 20.0883 77.3213 19.7125 78.5951 21.1303C80.4369 23.1972 80.9361 28.5267 80.9361 28.5267C80.9361 28.5267 76.2541 28.2363 74.2401 25.9644Z" fill="#EC1C24"/>
<path d="M85.3943 24.0512C84.5164 26.084 81.4008 28.0996 81.4008 28.0996C81.4008 28.0996 80.4541 24.4099 81.3148 22.3772C82.0894 20.5665 83.4836 20.2932 84.5508 20.7203C85.6181 21.1473 86.1344 22.4626 85.3943 24.0512Z" fill="#EC1C24"/>
<path d="M89.3189 35.4448H89.2672C89.0262 35.4448 88.8197 35.6498 88.8197 35.8889V38.4171L86.3926 35.5815C86.3066 35.4961 86.2033 35.4277 86.0656 35.4277C85.8246 35.4277 85.6525 35.6156 85.6525 35.8548V39.8007C85.6525 40.0398 85.859 40.2448 86.1 40.2448H86.1516C86.3926 40.2448 86.5992 40.0398 86.5992 39.8007V37.2897L88.9746 40.0911C89.0607 40.1936 89.164 40.2448 89.3017 40.2448H89.3533C89.5771 40.2448 89.7664 40.0569 89.7664 39.8178V35.8719C89.7664 35.6498 89.5771 35.4448 89.3189 35.4448Z" fill="white"/>
<path d="M81.5902 35.4449H79.2148C78.9738 35.4449 78.7672 35.6498 78.7672 35.889V39.8178C78.7672 40.057 78.9738 40.2619 79.2148 40.2619H81.5902C81.8312 40.2619 82.0377 40.057 82.0377 39.8178C82.0377 39.5616 81.8312 39.3737 81.5902 39.3737H79.7311V38.2975H81.418C81.659 38.2975 81.8656 38.0925 81.8656 37.8534C81.8656 37.6142 81.659 37.4093 81.418 37.4093H79.7311V36.3673H81.5902C81.8312 36.3673 82.0377 36.1623 82.0377 35.9231C82.0377 35.6498 81.8312 35.4449 81.5902 35.4449Z" fill="white"/>
<path d="M74.9804 38.9979C74.8083 38.8441 74.5501 38.8441 74.3779 38.9979C74.0681 39.2712 73.6894 39.4078 73.2591 39.4078C72.8288 39.4078 72.4501 39.2712 72.1574 38.9637C71.8648 38.6733 71.7099 38.3146 71.7099 37.8704C71.7099 37.4092 71.8648 37.0334 72.1574 36.743C72.4501 36.4356 72.8115 36.2989 73.2591 36.2989C73.6722 36.2989 74.0164 36.4356 74.3435 36.6918C74.5328 36.8455 74.791 36.8455 74.9632 36.6918L74.9804 36.6747C75.1697 36.4868 75.1525 36.1793 74.946 36.0085C74.4984 35.6156 73.8787 35.3765 73.2074 35.3765C72.5189 35.3765 71.9337 35.6156 71.4345 36.0939C70.9525 36.5722 70.7115 37.1701 70.7115 37.8875C70.7115 38.605 70.9525 39.2028 71.4173 39.664C71.8992 40.1253 72.4845 40.3473 73.1902 40.3473C73.8787 40.3473 74.5156 40.0911 74.9804 39.6982C75.1697 39.5103 75.1869 39.1858 74.9804 38.9979Z" fill="white"/>
<path d="M96.6862 35.4449H93.846C93.605 35.4449 93.3984 35.6498 93.3984 35.889V35.9231C93.3984 36.1623 93.605 36.3673 93.846 36.3673H94.7755V39.8007C94.7755 40.0399 94.9821 40.2449 95.223 40.2449H95.3091C95.5501 40.2449 95.7567 40.0399 95.7567 39.8007V36.3844H96.6862C96.9271 36.3844 97.1337 36.1794 97.1337 35.9402V35.9061C97.1337 35.6498 96.9444 35.4449 96.6862 35.4449Z" fill="white"/>
<path d="M119.941 35.4449C119.786 35.4449 119.666 35.5132 119.58 35.6328L117.824 38.178L116.051 35.6328C115.982 35.5132 115.844 35.4449 115.707 35.4449C115.483 35.4449 115.293 35.6328 115.293 35.8719V39.8178C115.293 40.057 115.5 40.2619 115.741 40.2619H115.793C116.034 40.2619 116.24 40.057 116.24 39.8178V37.5288L117.462 39.3054C117.617 39.5445 117.979 39.5445 118.134 39.3054L119.373 37.5288V39.8178C119.373 40.057 119.58 40.2619 119.821 40.2619H119.889C120.13 40.2619 120.337 40.057 120.337 39.8178V35.8719C120.354 35.6328 120.165 35.4449 119.941 35.4449Z" fill="white"/>
<path d="M104.26 36.9651C104.26 36.5381 104.122 36.1794 103.829 35.889C103.554 35.5986 103.141 35.4449 102.607 35.4449H101.213C100.972 35.4449 100.766 35.6498 100.766 35.889V39.8178C100.766 40.074 100.972 40.2619 101.213 40.2619H101.282C101.523 40.2619 101.729 40.057 101.729 39.8178V38.5196H102.297L103.193 40.057C103.279 40.1936 103.416 40.279 103.571 40.279H103.64C103.984 40.279 104.208 39.8861 104.019 39.5957L103.279 38.3829C103.933 38.1438 104.26 37.5972 104.26 36.9651ZM102.521 37.6484H101.729V36.3502H102.607C103.02 36.3502 103.279 36.6406 103.279 36.9993C103.279 37.358 103.02 37.6484 102.521 37.6484Z" fill="white"/>
<path d="M111.214 35.4449H111.128C110.887 35.4449 110.68 35.6498 110.68 35.889V38.4342C110.68 39.0662 110.336 39.4078 109.785 39.4078C109.217 39.4078 108.873 39.0833 108.873 38.4342V35.889C108.873 35.6498 108.666 35.4449 108.425 35.4449H108.357C108.116 35.4449 107.909 35.6498 107.909 35.889V38.5025C107.909 39.1175 108.081 39.5616 108.443 39.8861C108.804 40.1936 109.252 40.3644 109.803 40.3644C110.353 40.3644 110.801 40.2107 111.145 39.8861C111.507 39.5787 111.679 39.1175 111.679 38.5025V35.889C111.662 35.6498 111.455 35.4449 111.214 35.4449Z" fill="white"/>
<path d="M49.8147 14.3317C48.4893 14.3317 47.4049 15.1516 47.4049 16.1595C47.4049 17.1673 48.4893 17.9872 49.8147 17.9872C51.1402 17.9872 52.2246 17.1673 52.2246 16.1595C52.2418 15.1516 51.1574 14.3317 49.8147 14.3317Z" fill="white"/>
<path d="M9.51888 31.2427C10.0869 31.311 13.5295 31.7722 16.3181 31.7722C16.9377 31.7722 19.1238 31.7039 21.1894 30.8498C22.2566 30.4057 23.1517 29.8078 23.823 29.0904C24.632 28.2192 25.1484 27.1601 25.3722 25.9303C25.5271 25.1957 25.6131 24.3075 25.6304 23.5388C25.6131 22.548 25.4754 21.5231 25.2172 20.4128C24.4943 17.4747 22.4976 15.4078 19.6058 14.5537C18.1943 14.1438 16.7484 13.973 15.2853 14.0413C13.8738 14.0925 12.4451 14.3658 11.0164 14.8783C10.6894 14.9808 9.12298 15.7495 8.74429 16.074C8.43445 16.3303 8.46888 16.4327 8.58937 16.7402C8.62379 16.8256 8.65822 16.911 8.70986 17.0306C9.17462 18.3801 9.50166 19.9516 9.69101 21.7452C9.84593 23.1801 9.89757 24.7345 9.86314 26.3744C9.82871 28.8854 9.57052 30.8327 9.51888 31.2427ZM16.0082 28.4242C15.4746 28.4242 15.0271 28.39 15.0271 28.39H14.9582V17.4064L15.0271 17.3893C16.1287 17.2185 17.1443 17.3722 17.9877 17.8676C18.8312 18.363 19.4508 19.1829 19.8123 20.2249C20.4492 22.121 20.4492 24.0171 19.8123 25.8961C19.6402 26.3915 19.3476 26.9039 18.9517 27.4164C18.5041 27.9801 17.8328 28.2876 16.8689 28.373C16.559 28.4242 16.2664 28.4242 16.0082 28.4242Z" fill="white"/>
<path d="M38.3336 22.6164C38.2647 21.9843 38.0065 21.4035 37.5762 20.9082C37.2147 20.4811 36.7328 20.1053 36.2336 19.832C35.3729 19.3708 34.3918 19.1487 33.2901 19.1487C32.8426 19.1487 32.3951 19.1829 31.8959 19.2512C29.2795 19.627 28.0401 21.1132 27.4549 22.2918C26.9901 23.2313 26.7836 24.3075 26.818 25.4349C26.8524 26.4939 27.1451 27.5188 27.6098 28.3388C27.6615 28.4242 27.7303 28.5608 27.7647 28.595C27.8164 28.6804 27.8852 28.7658 27.9369 28.8342C28.8492 30.047 30.3467 30.8669 32.0508 31.089C33.7033 31.311 35.3213 30.9181 36.4746 30.0299C37.2836 29.3979 37.7828 28.6975 38.0065 27.9117C38.0926 27.6043 38.0754 27.2968 38.0065 27.2285C37.9721 27.2114 37.9205 27.2285 37.8688 27.2455C37.6278 27.3822 37.1803 27.6043 37.0082 27.6897C36.1131 28.0996 35.2524 28.2875 34.409 28.2875C34.0819 28.2875 33.7549 28.2534 33.4278 28.2021C32.8598 28.0996 32.3434 27.8605 31.9647 27.5189C31.586 27.1772 31.3451 26.7672 31.2762 26.306L31.259 26.2035H31.3623C31.5688 26.2206 31.7926 26.2377 31.9992 26.2548C32.4639 26.306 32.9459 26.3402 33.4106 26.3573C34.8049 26.3914 35.941 26.1011 36.9049 25.469C37.7139 24.9224 38.2303 24.0854 38.2992 23.1459C38.2992 23.1288 38.2992 23.0946 38.2992 23.0605C38.3508 22.958 38.3508 22.7701 38.3336 22.6164ZM33.9615 23.163C33.7033 23.5388 33.3074 23.8975 32.8942 24.0512C32.4123 24.2391 31.8787 24.3075 31.2418 24.3416C31.1901 23.4021 31.3623 22.6334 31.8787 21.9843C32.2746 21.506 32.9631 21.3523 33.5311 21.6085C34.0992 21.8648 34.3401 22.5822 33.9615 23.163Z" fill="white"/>
<path d="M106.584 19.1487C106.153 19.1487 105.689 19.1829 105.189 19.2512C102.573 19.627 101.334 21.1132 100.748 22.2918C100.284 23.2313 100.077 24.3075 100.111 25.4349C100.163 26.4939 100.439 27.5189 100.903 28.3388C100.955 28.4242 101.024 28.5608 101.058 28.595C101.11 28.6804 101.179 28.7658 101.23 28.8512C102.143 30.064 103.64 30.884 105.344 31.106C106.997 31.3281 108.615 30.9352 109.768 30.047C110.577 29.4149 111.076 28.7146 111.3 27.9288C111.386 27.6384 111.369 27.3139 111.283 27.2455C111.248 27.2285 111.197 27.2455 111.145 27.2626C110.904 27.3993 110.457 27.6213 110.284 27.6897C109.389 28.0996 108.529 28.3046 107.685 28.3046C107.358 28.3046 107.031 28.2705 106.704 28.2192C106.136 28.1167 105.62 27.8776 105.241 27.5359C104.862 27.1943 104.621 26.7843 104.552 26.3231L104.535 26.2206H104.639C104.845 26.2377 105.069 26.2548 105.275 26.2719C105.74 26.306 106.222 26.3573 106.687 26.3744C108.081 26.4085 109.217 26.1181 110.181 25.4861C110.99 24.9395 111.507 24.1025 111.575 23.163C111.575 23.1459 111.575 23.1117 111.575 23.0776C111.575 22.9409 111.575 22.753 111.558 22.5993C111.489 21.9672 111.231 21.3865 110.818 20.8911C110.457 20.464 109.975 20.0882 109.475 19.8149C108.666 19.3708 107.702 19.1487 106.584 19.1487ZM104.449 24.427V24.3416C104.398 23.2996 104.604 22.5651 105.103 21.9331C105.499 21.4377 106.239 21.2669 106.842 21.5402C107.152 21.6769 107.375 21.9331 107.479 22.2576C107.565 22.5822 107.513 22.9068 107.324 23.1971C107.048 23.6071 106.618 23.9658 106.205 24.1196C105.723 24.3075 105.189 24.3758 104.535 24.427H104.449Z" fill="white"/>
<path d="M39.6591 14.4342V15.2882C39.6591 18.6875 39.6591 27.7409 39.6763 28.6292C39.6763 28.6633 39.6763 29.005 39.7623 29.3466C39.8828 29.842 40.1238 30.2519 40.4853 30.5765C40.8468 30.884 41.2943 31.089 41.8107 31.1744C42.4648 31.2769 43.2394 31.1915 43.9451 30.9523C44.5132 30.7473 45.305 30.3544 45.8902 29.5687L45.9074 29.5516C45.9935 29.4149 46.2173 29.0904 46.1484 28.9537C46.1312 28.9025 46.0623 28.8854 45.9418 28.8683C45.4082 28.8171 44.9779 28.6633 44.6509 28.39C44.2377 28.0484 44.014 27.5359 44.0312 26.8697C44.0312 26.4427 44.0484 14.5879 44.0484 14.4512C44.0484 14.2633 44.0484 14.0925 43.9623 14.0071C43.9107 13.9559 43.8418 13.9388 43.7214 13.9388C42.0517 13.9729 39.9345 14.3317 39.6591 14.4342Z" fill="white"/>
<path d="M49.6943 19.405C49.0574 19.405 48.4205 19.4562 47.7492 19.5587C47.4738 19.61 47.4049 19.6954 47.4049 19.9687C47.4222 21.0277 47.4049 22.121 47.4049 23.163C47.4049 23.5388 47.4049 23.9317 47.4049 24.3075C47.4049 24.3416 47.3877 27.1943 47.4221 28.6121C47.4221 28.6462 47.4394 28.9879 47.5254 29.3466C47.6459 29.842 47.8869 30.269 48.2484 30.5936C48.6099 30.9011 49.0574 31.106 49.591 31.2085C50.2451 31.311 51.0369 31.2256 51.7426 30.9865C52.3107 30.7815 53.1197 30.3886 53.7049 29.6028L53.7221 29.5857C53.8082 29.4491 54.032 29.1245 53.9631 28.9879C53.9459 28.9366 53.8771 28.9025 53.7566 28.9025C53.223 28.8512 52.7754 28.6975 52.4656 28.4242C52.0525 28.0825 51.8287 27.553 51.8287 26.8868C51.8287 25.879 51.8287 24.7687 51.8287 23.7096C51.8287 22.4797 51.8287 21.1986 51.8287 20.037C51.8287 19.7295 51.7599 19.627 51.4328 19.5758C50.882 19.4562 50.2967 19.405 49.6943 19.405Z" fill="white"/>
<path d="M55.2025 13.4776C55.2025 14.8783 55.1853 30.252 55.1853 30.3886C55.1853 30.7132 55.2542 30.8157 55.5812 30.8669C56.8205 31.0548 58.0255 31.0548 59.2476 30.8498C59.5574 30.7986 59.6091 30.6961 59.6091 30.4228V24.9908L59.764 25.3324C60.4353 26.8527 61.6574 28.9196 62.673 29.9787C63.1033 30.4228 63.5509 30.7132 64.0328 30.8669C64.5837 31.0548 65.1861 31.0548 65.8402 30.8669C67.0968 30.5253 67.9402 29.3808 68.2328 28.4071C68.3189 28.0997 68.3361 27.8947 68.2501 27.7922C68.1812 27.6897 68.0091 27.6897 67.8197 27.6897C67.8025 27.6897 67.7853 27.6897 67.7681 27.6897C66.5976 27.6897 65.6337 27.3481 64.8935 26.6648C64.291 26.1011 63.8091 25.2982 63.4648 24.205L63.4476 24.1538L63.4992 24.1196C63.5681 24.0683 63.6542 24.0171 63.7574 23.9488C64.1189 23.7267 64.7386 23.3338 65.2205 22.736C65.8058 22.0185 66.0468 21.1474 65.9435 20.1566C65.8746 19.5246 65.5132 19.0121 64.8419 18.6534C64.2222 18.3118 63.3787 18.1239 62.4148 18.0897C62.3287 18.0897 62.2599 18.1068 62.2083 18.158C62.1566 18.2093 62.1394 18.2605 62.1394 18.3288C62.1394 18.5338 62.1566 18.7388 62.1566 18.9267C62.2255 20.3445 62.3115 21.8135 59.7468 23.5388L59.6263 23.6242V23.4705C59.6263 19.8833 59.6263 15.3566 59.6263 14.1609C59.6263 13.8534 59.5402 13.7509 59.2648 13.7338C59.1443 13.7338 59.0066 13.7167 58.8173 13.6997C58.1115 13.5972 56.9583 13.4776 55.2025 13.4776Z" fill="white"/>
<path d="M92.7615 16.0569C92.7615 16.9281 92.7615 27.7067 92.7787 28.6462C92.7787 28.6804 92.7959 29.022 92.882 29.3637C93.0025 29.859 93.2434 30.269 93.6049 30.5936C93.9664 30.901 94.4139 31.106 94.9303 31.1914C95.5844 31.2939 96.359 31.2256 97.0648 30.9694C97.6328 30.7644 98.4246 30.3715 99.0098 29.5857L99.0271 29.5686C99.1131 29.432 99.3369 29.1074 99.268 28.9708C99.2508 28.9195 99.182 28.8854 99.0615 28.8854C98.5451 28.8341 98.132 28.6804 97.8049 28.4412C97.3918 28.1167 97.168 27.6384 97.1508 27.0064C97.1508 25.879 97.1508 25.042 97.1508 24.222C97.1508 23.385 97.1508 22.5309 97.1508 21.3523V21.2669H99.0787L99.0615 19.6099H97.1508V19.5245C97.1508 19.4904 97.1508 16.279 97.1508 16.074C97.1508 15.9032 97.1508 15.7153 97.0648 15.6299C97.0131 15.5786 96.9443 15.5615 96.841 15.5615C95.223 15.5615 93.2779 15.869 92.7615 16.0569Z" fill="white"/>
<path d="M115.087 26.9723C114.725 26.9723 114.071 27.0235 113.572 27.3481C113.09 27.6555 112.798 28.1167 112.763 28.6292C112.729 29.1075 112.918 29.5858 113.314 29.9445C113.658 30.252 114.089 30.5253 114.622 30.7473C115.672 31.1915 117.187 31.4135 118.151 31.4135C119.011 31.4135 119.545 31.3452 120.251 31.2256C121.439 31.0207 122.248 30.6449 123.005 29.9616C123.676 29.3466 124.038 28.5267 123.986 27.7068C123.934 26.8698 123.504 26.1352 122.764 25.6057C122.385 25.3324 122.024 25.1274 121.697 24.9908C121.266 24.8199 120.836 24.6491 120.406 24.4954C119.941 24.3246 119.459 24.1538 118.977 23.9488C118.96 23.9488 118.925 23.9317 118.908 23.9146C118.443 23.7267 117.032 23.1459 117.376 22.0868C117.462 21.8306 117.652 21.6086 117.91 21.4719C118.168 21.3352 118.633 21.2328 119.356 21.4719C120.182 21.7452 120.888 22.4968 121.421 23.6413C121.886 23.6584 122.402 23.5046 122.695 23.3509C123.039 23.163 123.315 22.9068 123.47 22.5822C123.625 22.2577 123.659 21.8989 123.573 21.5231C123.384 20.6691 122.643 20.2249 121.593 19.832C120.354 19.3538 118.788 19.2 117.204 19.3708C116.12 19.4904 115.173 19.8662 114.364 20.4641C113.452 21.1473 113.004 21.916 112.952 22.8726C112.866 24.3587 113.555 25.0249 114.691 25.6399C115.311 25.9644 116.43 26.3744 117.221 26.6648C117.48 26.7673 117.721 26.8527 117.91 26.921C117.944 26.9381 117.979 26.9552 118.03 26.9723C118.478 27.1431 119.235 27.4164 119.511 27.9118C119.631 28.1338 119.648 28.39 119.562 28.6121C119.442 28.9025 119.149 29.1246 118.719 29.2271C118.443 29.3125 118.03 29.2954 117.772 29.2271C116.068 28.8513 115.483 27.5701 115.259 27.0747C115.242 27.0577 115.242 27.0235 115.225 27.0064C115.19 26.9723 115.139 26.9723 115.087 26.9723Z" fill="white"/>
</g>
<defs>
<clipPath id="clip0_612_7343">
<rect width="147" height="48" fill="white"/>
</clipPath>
</defs>
</svg>
